<?xml version="1.0" standalone="no"?>
<!DOCTYPE svg PUBLIC "-//W3C//DTD SVG 20010904//EN"
 "http://www.w3.org/TR/2001/REC-SVG-20010904/DTD/svg10.dtd">
<svg version="1.0" xmlns="http://www.w3.org/2000/svg"
 width="941.000000pt" height="1280.000000pt" viewBox="0 0 941.000000 1280.000000"
 preserveAspectRatio="xMidYMid meet">
<g transform="translate(0.000000,1280.000000) scale(0.100000,-0.100000)"
fill="#000000" stroke="none">
<path d="M5034 12790 c-54 -22 -68 -61 -287 -789 -118 -392 -219 -717 -224
-722 -4 -4 -405 111 -906 262 -494 149 -904 269 -910 266 -11 -4 -443 -1415
-435 -1422 2 -1 125 -39 273 -84 317 -96 440 -150 485 -212 62 -86 64 -155 9
-369 -37 -150 -1532 -5110 -1584 -5259 -44 -125 -94 -228 -127 -258 -60 -57
-155 -69 -299 -39 -42 9 -190 50 -329 92 -138 41 -254 74 -256 72 -2 -2 -100
-323 -218 -714 -144 -480 -210 -711 -202 -715 6 -4 413 -127 905 -275 491
-148 896 -274 898 -281 3 -7 -90 -327 -206 -712 -140 -465 -211 -715 -211
-745 0 -84 2 -85 529 -244 520 -157 530 -159 576 -97 17 22 88 241 238 741
181 598 217 709 233 712 10 1 134 -33 274 -76 216 -65 255 -80 258 -97 1 -11
-94 -339 -212 -730 -233 -773 -220 -712 -171 -779 10 -13 129 -53 392 -132
208 -63 429 -130 490 -150 l113 -36 46 22 c25 13 50 32 55 44 4 11 104 338
220 726 116 388 215 709 220 714 5 5 58 -2 128 -18 162 -35 433 -81 611 -103
199 -24 648 -24 803 0 606 94 1087 333 1489 739 394 399 644 908 735 1498 28
179 25 552 -6 723 -103 582 -344 984 -814 1361 -54 43 -96 83 -94 89 2 6 40
19 84 28 740 159 1348 679 1628 1393 80 204 114 348 164 693 14 90 14 242 1
314 -5 30 -16 106 -25 169 -65 463 -263 862 -600 1208 -213 220 -444 386 -756
543 -113 56 -406 180 -531 224 -91 32 -108 41 -108 59 0 11 99 347 219 746
l219 725 -24 47 c-18 36 -32 49 -56 56 -18 5 -236 71 -485 146 -249 75 -463
136 -475 136 -31 0 -86 -35 -98 -62 -5 -13 -102 -331 -215 -708 -248 -825
-224 -750 -238 -750 -7 0 -135 36 -284 81 -232 70 -273 85 -273 101 0 11 96
340 214 731 164 548 213 720 209 749 -10 72 -19 77 -519 229 -253 77 -472 142
-489 145 -16 2 -40 -1 -51 -6z m597 -3635 c613 -184 839 -264 1064 -375 256
-127 391 -275 461 -505 24 -79 27 -107 27 -230 0 -109 -5 -162 -22 -240 -78
-349 -286 -618 -558 -723 -129 -50 -221 -65 -383 -65 -248 1 -495 52 -1045
218 -551 166 -515 153 -515 176 0 20 531 1793 550 1837 5 12 16 22 24 22 7 0
186 -52 397 -115z m-889 -3434 c562 -170 683 -213 893 -316 184 -90 257 -138
357 -233 265 -253 346 -585 242 -994 -102 -406 -317 -693 -640 -861 -191 -98
-365 -124 -629 -93 -192 22 -386 68 -745 175 -485 146 -623 193 -646 222 -29
36 -22 93 37 314 49 184 572 1919 583 1933 12 17 -36 29 548 -147z"/>
</g>
</svg>
