<svg id="Layer_1" data-name="Layer 1" xmlns="http://www.w3.org/2000/svg" viewBox="0 0 811.77 130.38"><defs><style>.cls-1{fill:#061b31;}</style></defs><title>satstreet-text</title><path class="cls-1" d="M0,92.41l23.46-7.16c5,13.07,17.73,23.46,35.82,23.46C74,108.71,83.1,101.19,83.1,93c0-6.63-4.48-11.1-16.48-15l-32.06-10C18.08,62.69,6.09,52.12,6.27,36c-.18-19.52,18.8-36,45-36,27,0,47.1,14.86,53.9,32.24L82.38,38.87c-5.19-10.21-16.83-17.19-31-17.19C39,21.68,31.16,28,31.16,35.29c0,5.55,3.76,9.31,12,11.82l31.16,10C93.48,63.05,108,71.11,108,91.52c0,21.49-20.06,38.86-50.14,38.86C27.22,130.38,7,111.93,0,92.41Z"/><path class="cls-1" d="M120.7,82.56c0-27.58,19.7-47.82,44.77-47.82,12.71,0,22.74,5.19,29.19,13.43V37.25h23.82v90.62H194.66v-11.1c-6.45,8.24-16.48,13.61-29.19,13.61C140.4,130.38,120.7,110,120.7,82.56Zm74.68-.18c0-15.58-11.46-26.5-25.79-26.5-14.86,0-25.43,10.92-25.43,26.5,0,15.76,10.57,26.86,25.43,26.86C183.92,109.25,195.38,98.14,195.38,82.38Z"/><path class="cls-1" d="M299.25,125a54.46,54.46,0,0,1-21.13,4.3c-20.77,0-30.26-12.89-30.26-32.41V58H232.64V37.26h15.22V7.89h23.82V37.26h26.5V58h-26.5V96.89c0,7.34,3.58,11.46,11.1,11.46a22.14,22.14,0,0,0,10.75-2.51Z"/><path class="cls-1" d="M306.59,102.44l21.31-6.27c3,8.6,11.64,15,23.64,15,9.13,0,15-4.3,15-9.31,0-4.48-3.4-7-10-9l-23.1-6.81C320.56,82.38,311.06,74.86,311.06,62c0-15.22,16.48-27.22,36.35-27.22,19.52,0,34.38,9.31,40.11,22.92l-20.95,6.09c-3.22-5.73-9.85-10.57-19.34-10.57-7.34,0-12.89,3.94-12.89,8.24,0,3.58,2.51,5.73,7.52,7.16L364.43,75C378,79,389.86,84.52,389.86,100.82c0,17-16.12,29.55-39.22,29.55C328.26,130.38,311.07,117.12,306.59,102.44Z"/><path class="cls-1" d="M463.65,125a54.46,54.46,0,0,1-21.13,4.3c-20.77,0-30.26-12.89-30.26-32.41V58H397V37.26h15.22V7.89h23.82V37.26h26.5V58h-26.5V96.89c0,7.34,3.58,11.46,11.1,11.46a22.14,22.14,0,0,0,10.75-2.51Z"/><path class="cls-1" d="M533.48,36V58.21c-19.34-3-29.91,5.91-29.91,30.26v39.4H479.93V37.25h23.64V50.68C509,40.12,519.34,34,533.48,36Z"/><path class="cls-1" d="M538.32,82.56c0-27,19-47.82,47.46-47.82,29.73,0,46.74,20.59,46.74,46.56a44.19,44.19,0,0,1-.54,8.42H561.6c1.61,11.64,9.85,20.59,26.32,20.59,11.46,0,18.45-5.19,22-12l21.31,6.27c-5.19,11.82-19.88,25.79-43.7,25.79C558.56,130.38,538.32,111.22,538.32,82.56Zm71.1-7.7c-1.07-11.1-9.67-20.06-23.82-20.06-13.79,0-22.74,9.67-24,20.06Z"/><path class="cls-1" d="M644.87,82.56c0-27,19-47.82,47.46-47.82,29.73,0,46.74,20.59,46.74,46.56a44.19,44.19,0,0,1-.54,8.42H668.15c1.61,11.64,9.85,20.59,26.32,20.59,11.46,0,18.45-5.19,22-12l21.31,6.27c-5.19,11.82-19.88,25.79-43.7,25.79C665.11,130.38,644.87,111.22,644.87,82.56Zm71.1-7.7c-1.07-11.1-9.67-20.06-23.82-20.06-13.79,0-22.74,9.67-24,20.06Z"/><path class="cls-1" d="M811.77,125a54.46,54.46,0,0,1-21.13,4.3c-20.77,0-30.26-12.89-30.26-32.41V58H745.16V37.26h15.22V7.89H784.2V37.26h26.5V58H784.2V96.89c0,7.34,3.58,11.46,11.1,11.46a22.14,22.14,0,0,0,10.75-2.51Z"/></svg>